# Blender v2.81 (sub 16) OBJ File: ''
# www.blender.org
mtllib try2.mtl
o Cylinder
v 0.000000 -7.927287 -1.846889
v 0.000000 7.927288 -1.846887
v 0.360310 7.927288 -1.811399
v 0.360310 -7.927287 -1.811401
v 0.706773 7.927288 -1.706301
v 0.706773 -7.927287 -1.706303
v 1.026076 7.927288 -1.535630
v 1.026076 -7.927287 -1.535632
v 1.305947 7.927287 -1.305946
v 1.305947 -7.927287 -1.305948
v 1.535631 7.927287 -1.026075
v 1.535631 -7.927287 -1.026077
v 1.706302 7.927287 -0.706772
v 1.706302 -7.927287 -0.706774
v 1.811400 7.927287 -0.360309
v 1.811400 -7.927287 -0.360311
v 1.846888 7.927287 0.000001
v 1.846888 -7.927287 -0.000001
v 1.811400 7.927287 0.360311
v 1.811400 -7.927287 0.360309
v 1.706302 7.927287 0.706774
v 1.706302 -7.927287 0.706772
v 1.535631 7.927287 1.026077
v 1.535631 -7.927287 1.026075
v 1.305947 7.927287 1.305948
v 1.305947 -7.927287 1.305946
v 1.026076 7.927287 1.535632
v 1.026076 -7.927288 1.535630
v 0.706773 7.927287 1.706303
v 0.706773 -7.927288 1.706301
v 0.360309 7.927287 1.811401
v 0.360309 -7.927288 1.811399
v -0.000001 7.927287 1.846889
v -0.000001 -7.927288 1.846887
v -0.360311 7.927287 1.811401
v -0.360311 -7.927288 1.811399
v -0.706774 7.927287 1.706302
v -0.706774 -7.927288 1.706300
v -1.026077 7.927287 1.535631
v -1.026077 -7.927288 1.535629
v -1.305948 7.927287 1.305947
v -1.305948 -7.927287 1.305945
v -1.535632 7.927287 1.026076
v -1.535632 -7.927287 1.026074
v -1.706302 7.927287 0.706773
v -1.706302 -7.927287 0.706771
v -1.811401 7.927287 0.360309
v -1.811401 -7.927287 0.360307
v -1.846888 7.927287 -0.000001
v -1.846888 -7.927287 -0.000003
v -1.811400 7.927287 -0.360311
v -1.811400 -7.927287 -0.360313
v -1.706301 7.927287 -0.706774
v -1.706301 -7.927287 -0.706776
v -1.535630 7.927287 -1.026077
v -1.535630 -7.927287 -1.026079
v -1.305945 7.927287 -1.305947
v -1.305945 -7.927287 -1.305949
v -1.026074 7.927288 -1.535631
v -1.026074 -7.927287 -1.535633
v -0.706771 7.927288 -1.706302
v -0.706771 -7.927287 -1.706304
v -0.360307 7.927288 -1.811400
v -0.360307 -7.927287 -1.811402
vt 0.088582 0.000000
vt 0.088582 1.000000
vt 0.063350 1.000000
vt 0.063350 0.000000
vt 0.039582 1.000000
vt 0.039582 0.000000
vt 0.018191 1.000000
vt 0.018191 0.000000
vt 0.000000 1.000000
vt 0.000000 0.000000
vt 0.387589 0.000000
vt 0.387589 1.000000
vt 0.369398 1.000000
vt 0.369398 0.000000
vt 0.348007 1.000000
vt 0.348007 0.000000
vt 0.324239 1.000000
vt 0.324239 0.000000
vt 0.299007 1.000000
vt 0.299007 0.000000
vt 0.273281 1.000000
vt 0.273281 0.000000
vt 0.248049 1.000000
vt 0.248049 0.000000
vt 0.224281 1.000000
vt 0.224281 0.000000
vt 0.202890 1.000000
vt 0.202890 0.000000
vt 0.738796 0.000000
vt 0.738796 1.000000
vt 0.717406 1.000000
vt 0.717405 0.000000
vt 0.693638 1.000000
vt 0.693638 0.000000
vt 0.668406 1.000000
vt 0.668405 0.000000
vt 0.642679 1.000000
vt 0.642679 0.000000
vt 0.617447 1.000000
vt 0.617447 0.000000
vt 0.593679 1.000000
vt 0.593679 0.000000
vt 0.572289 1.000000
vt 0.572288 0.000000
vt 0.387589 1.000000
vt 0.387589 0.000000
vt 0.408980 0.000000
vt 0.408980 1.000000
vt 0.432748 0.000000
vt 0.432748 1.000000
vt 0.457980 0.000000
vt 0.457980 1.000000
vt 0.483706 0.000000
vt 0.483706 1.000000
vt 0.508938 0.000000
vt 0.508938 1.000000
vt 0.532706 0.000000
vt 0.532706 1.000000
vt 0.554097 0.000000
vt 0.554097 1.000000
vt 0.572288 0.000000
vt 0.572288 1.000000
vt 0.202890 0.000000
vt 0.202890 1.000000
vt 0.184699 1.000000
vt 0.184699 0.000000
vt 0.163308 1.000000
vt 0.163308 0.000000
vt 0.139540 1.000000
vt 0.139540 0.000000
vt 0.743815 0.313970
vt 0.753660 0.292872
vt 0.767953 0.273885
vt 0.786144 0.257738
vt 0.807535 0.245051
vt 0.831303 0.236312
vt 0.856535 0.231857
vt 0.882261 0.231857
vt 0.907493 0.236312
vt 0.931261 0.245051
vt 0.952652 0.257738
vt 0.970843 0.273885
vt 0.985136 0.292872
vt 0.994981 0.313970
vt 1.000000 0.336367
vt 1.000000 0.359203
vt 0.994981 0.381600
vt 0.985136 0.402698
vt 0.970843 0.421685
vt 0.952652 0.437832
vt 0.931261 0.450519
vt 0.907493 0.459258
vt 0.882261 0.463713
vt 0.856535 0.463713
vt 0.831303 0.459258
vt 0.807535 0.450519
vt 0.786144 0.437832
vt 0.767953 0.421685
vt 0.753660 0.402698
vt 0.743815 0.381600
vt 0.738796 0.359203
vt 0.738796 0.336367
vt 0.114308 1.000000
vt 0.114308 0.000000
vt 0.786144 0.205976
vt 0.767953 0.189828
vt 0.753660 0.170841
vt 0.743815 0.149743
vt 0.738796 0.127346
vt 0.738796 0.104510
vt 0.743815 0.082113
vt 0.753660 0.061016
vt 0.767953 0.042028
vt 0.786144 0.025881
vt 0.807535 0.013194
vt 0.831303 0.004455
vt 0.856535 0.000000
vt 0.882261 0.000000
vt 0.907493 0.004455
vt 0.931261 0.013194
vt 0.952652 0.025881
vt 0.970843 0.042028
vt 0.985136 0.061016
vt 0.994981 0.082113
vt 1.000000 0.104510
vt 1.000000 0.127346
vt 0.994981 0.149743
vt 0.985136 0.170841
vt 0.970843 0.189828
vt 0.952652 0.205976
vt 0.931261 0.218663
vt 0.907493 0.227402
vt 0.882261 0.231857
vt 0.856535 0.231857
vt 0.831303 0.227402
vt 0.807535 0.218663
vn 0.0980 0.0000 -0.9952
vn 0.2903 0.0000 -0.9569
vn 0.4714 0.0000 -0.8819
vn 0.6344 0.0000 -0.7730
vn 0.7730 0.0000 -0.6344
vn 0.8819 0.0000 -0.4714
vn 0.9569 0.0000 -0.2903
vn 0.9952 0.0000 -0.0980
vn 0.9952 -0.0000 0.0980
vn 0.9569 -0.0000 0.2903
vn 0.8819 -0.0000 0.4714
vn 0.7730 -0.0000 0.6344
vn 0.6344 -0.0000 0.7730
vn 0.4714 -0.0000 0.8819
vn 0.2903 -0.0000 0.9569
vn 0.0980 -0.0000 0.9952
vn -0.0980 -0.0000 0.9952
vn -0.2903 -0.0000 0.9569
vn -0.4714 -0.0000 0.8819
vn -0.6344 -0.0000 0.7730
vn -0.7730 -0.0000 0.6344
vn -0.8819 -0.0000 0.4714
vn -0.9569 -0.0000 0.2903
vn -0.9952 -0.0000 0.0980
vn -0.9952 0.0000 -0.0980
vn -0.9569 0.0000 -0.2903
vn -0.8819 0.0000 -0.4714
vn -0.7730 0.0000 -0.6344
vn -0.6344 0.0000 -0.7730
vn -0.4714 0.0000 -0.8819
vn -0.0000 1.0000 0.0000
vn -0.2903 0.0000 -0.9569
vn -0.0980 0.0000 -0.9952
vn 0.0000 -1.0000 -0.0000
usemtl Material.002
s 1
f 1/1/1 2/2/1 3/3/1 4/4/1
f 4/4/2 3/3/2 5/5/2 6/6/2
f 6/6/3 5/5/3 7/7/3 8/8/3
f 8/8/4 7/7/4 9/9/4 10/10/4
f 10/11/5 9/12/5 11/13/5 12/14/5
f 12/14/6 11/13/6 13/15/6 14/16/6
f 14/16/7 13/15/7 15/17/7 16/18/7
f 16/18/8 15/17/8 17/19/8 18/20/8
f 18/20/9 17/19/9 19/21/9 20/22/9
f 20/22/10 19/21/10 21/23/10 22/24/10
f 22/24/11 21/23/11 23/25/11 24/26/11
f 24/26/12 23/25/12 25/27/12 26/28/12
f 26/29/13 25/30/13 27/31/13 28/32/13
f 28/32/14 27/31/14 29/33/14 30/34/14
f 30/34/15 29/33/15 31/35/15 32/36/15
f 32/36/16 31/35/16 33/37/16 34/38/16
f 34/38/17 33/37/17 35/39/17 36/40/17
f 36/40/18 35/39/18 37/41/18 38/42/18
f 38/42/19 37/41/19 39/43/19 40/44/19
f 40/45/20 39/46/20 41/47/20 42/48/20
f 42/48/21 41/47/21 43/49/21 44/50/21
f 44/50/22 43/49/22 45/51/22 46/52/22
f 46/52/23 45/51/23 47/53/23 48/54/23
f 48/54/24 47/53/24 49/55/24 50/56/24
f 50/56/25 49/55/25 51/57/25 52/58/25
f 52/58/26 51/57/26 53/59/26 54/60/26
f 54/60/27 53/59/27 55/61/27 56/62/27
f 56/63/28 55/64/28 57/65/28 58/66/28
f 58/66/29 57/65/29 59/67/29 60/68/29
f 60/68/30 59/67/30 61/69/30 62/70/30
f 3/71/31 2/72/31 63/73/31 61/74/31 59/75/31 57/76/31 55/77/31 53/78/31 51/79/31 49/80/31 47/81/31 45/82/31 43/83/31 41/84/31 39/85/31 37/86/31 35/87/31 33/88/31 31/89/31 29/90/31 27/91/31 25/92/31 23/93/31 21/94/31 19/95/31 17/96/31 15/97/31 13/98/31 11/99/31 9/100/31 7/101/31 5/102/31
f 62/70/32 61/69/32 63/103/32 64/104/32
f 64/104/33 63/103/33 2/2/33 1/1/33
f 1/105/34 4/106/34 6/107/34 8/108/34 10/109/34 12/110/34 14/111/34 16/112/34 18/113/34 20/114/34 22/115/34 24/116/34 26/117/34 28/118/34 30/119/34 32/120/34 34/121/34 36/122/34 38/123/34 40/124/34 42/125/34 44/126/34 46/127/34 48/128/34 50/129/34 52/130/34 54/131/34 56/132/34 58/133/34 60/134/34 62/135/34 64/136/34
